<mxfile host="app.diagrams.net" modified="2022-12-27T02:31:31.277Z" agent="5.0 (Windows)" etag="35YmhQoDutr3mCFd4kTG" version="20.7.4" type="github" pages="2">
  <diagram id="dLjvXciSlN3whFlakN7H" name="HOS_FLOW">
    <mxGraphModel dx="1050" dy="558" grid="1" gridSize="10" guides="1" tooltips="1" connect="1" arrows="1" fold="1" page="1" pageScale="1" pageWidth="827" pageHeight="1169" math="0" shadow="0">
      <root>
        <mxCell id="0" />
        <mxCell id="1" parent="0" />
        <mxCell id="sgr5qrsfKLjd4kA1AGSL-3" value="" style="edgeStyle=orthogonalEdgeStyle;rounded=0;orthogonalLoop=1;jettySize=auto;html=1;" parent="1" source="sgr5qrsfKLjd4kA1AGSL-1" target="sgr5qrsfKLjd4kA1AGSL-2" edge="1">
          <mxGeometry relative="1" as="geometry" />
        </mxCell>
        <mxCell id="sgr5qrsfKLjd4kA1AGSL-1" value="START" style="rounded=1;whiteSpace=wrap;html=1;" parent="1" vertex="1">
          <mxGeometry x="380" y="40" width="120" height="60" as="geometry" />
        </mxCell>
        <mxCell id="sgr5qrsfKLjd4kA1AGSL-5" value="" style="edgeStyle=orthogonalEdgeStyle;rounded=0;orthogonalLoop=1;jettySize=auto;html=1;" parent="1" source="sgr5qrsfKLjd4kA1AGSL-2" target="sgr5qrsfKLjd4kA1AGSL-4" edge="1">
          <mxGeometry relative="1" as="geometry" />
        </mxCell>
        <mxCell id="sgr5qrsfKLjd4kA1AGSL-2" value="&lt;div&gt;Employee Login&lt;/div&gt;&lt;div&gt;HOS&lt;/div&gt;" style="shape=parallelogram;perimeter=parallelogramPerimeter;whiteSpace=wrap;html=1;fixedSize=1;" parent="1" vertex="1">
          <mxGeometry x="381" y="160" width="120" height="60" as="geometry" />
        </mxCell>
        <mxCell id="sgr5qrsfKLjd4kA1AGSL-11" value="N" style="edgeStyle=orthogonalEdgeStyle;rounded=0;orthogonalLoop=1;jettySize=auto;html=1;entryX=0.5;entryY=0;entryDx=0;entryDy=0;" parent="1" source="sgr5qrsfKLjd4kA1AGSL-4" target="sgr5qrsfKLjd4kA1AGSL-9" edge="1">
          <mxGeometry relative="1" as="geometry">
            <mxPoint x="700" y="410" as="targetPoint" />
          </mxGeometry>
        </mxCell>
        <mxCell id="sgr5qrsfKLjd4kA1AGSL-12" value="Y" style="edgeStyle=orthogonalEdgeStyle;rounded=0;orthogonalLoop=1;jettySize=auto;html=1;" parent="1" source="sgr5qrsfKLjd4kA1AGSL-4" target="sgr5qrsfKLjd4kA1AGSL-8" edge="1">
          <mxGeometry relative="1" as="geometry" />
        </mxCell>
        <mxCell id="sgr5qrsfKLjd4kA1AGSL-4" value="exist?" style="rhombus;whiteSpace=wrap;html=1;" parent="1" vertex="1">
          <mxGeometry x="400" y="260" width="80" height="80" as="geometry" />
        </mxCell>
        <mxCell id="sgr5qrsfKLjd4kA1AGSL-16" value="" style="edgeStyle=orthogonalEdgeStyle;rounded=0;orthogonalLoop=1;jettySize=auto;html=1;" parent="1" source="sgr5qrsfKLjd4kA1AGSL-6" target="sgr5qrsfKLjd4kA1AGSL-15" edge="1">
          <mxGeometry relative="1" as="geometry" />
        </mxCell>
        <mxCell id="sgr5qrsfKLjd4kA1AGSL-6" value="Show Accessible Menu" style="whiteSpace=wrap;html=1;aspect=fixed;" parent="1" vertex="1">
          <mxGeometry x="570" y="400" width="80" height="80" as="geometry" />
        </mxCell>
        <mxCell id="sgr5qrsfKLjd4kA1AGSL-13" value="Y" style="edgeStyle=orthogonalEdgeStyle;rounded=0;orthogonalLoop=1;jettySize=auto;html=1;exitX=1;exitY=0.5;exitDx=0;exitDy=0;" parent="1" source="sgr5qrsfKLjd4kA1AGSL-8" target="sgr5qrsfKLjd4kA1AGSL-6" edge="1">
          <mxGeometry relative="1" as="geometry" />
        </mxCell>
        <mxCell id="sgr5qrsfKLjd4kA1AGSL-25" value="N" style="edgeStyle=orthogonalEdgeStyle;rounded=0;orthogonalLoop=1;jettySize=auto;html=1;" parent="1" source="sgr5qrsfKLjd4kA1AGSL-8" edge="1">
          <mxGeometry relative="1" as="geometry">
            <mxPoint x="180" y="440" as="targetPoint" />
          </mxGeometry>
        </mxCell>
        <mxCell id="sgr5qrsfKLjd4kA1AGSL-8" value="&lt;div&gt;Approve&lt;/div&gt;&lt;div&gt;T&amp;amp;C?&lt;/div&gt;" style="rhombus;whiteSpace=wrap;html=1;" parent="1" vertex="1">
          <mxGeometry x="401" y="400" width="80" height="80" as="geometry" />
        </mxCell>
        <mxCell id="sgr5qrsfKLjd4kA1AGSL-9" value="END" style="rounded=1;whiteSpace=wrap;html=1;" parent="1" vertex="1">
          <mxGeometry x="120" y="850" width="120" height="60" as="geometry" />
        </mxCell>
        <mxCell id="sgr5qrsfKLjd4kA1AGSL-19" value="" style="edgeStyle=orthogonalEdgeStyle;rounded=0;orthogonalLoop=1;jettySize=auto;html=1;" parent="1" source="sgr5qrsfKLjd4kA1AGSL-15" target="sgr5qrsfKLjd4kA1AGSL-17" edge="1">
          <mxGeometry relative="1" as="geometry" />
        </mxCell>
        <mxCell id="sgr5qrsfKLjd4kA1AGSL-15" value="Access Dukcapil Menu" style="rounded=1;whiteSpace=wrap;html=1;" parent="1" vertex="1">
          <mxGeometry x="550" y="525" width="120" height="60" as="geometry" />
        </mxCell>
        <mxCell id="sgr5qrsfKLjd4kA1AGSL-20" value="" style="edgeStyle=orthogonalEdgeStyle;rounded=0;orthogonalLoop=1;jettySize=auto;html=1;" parent="1" source="sgr5qrsfKLjd4kA1AGSL-17" target="sgr5qrsfKLjd4kA1AGSL-18" edge="1">
          <mxGeometry relative="1" as="geometry" />
        </mxCell>
        <mxCell id="sgr5qrsfKLjd4kA1AGSL-17" value="&lt;div&gt;Input required &lt;br&gt;&lt;/div&gt;&lt;div&gt;data&lt;/div&gt;" style="shape=parallelogram;perimeter=parallelogramPerimeter;whiteSpace=wrap;html=1;fixedSize=1;" parent="1" vertex="1">
          <mxGeometry x="550" y="630" width="120" height="60" as="geometry" />
        </mxCell>
        <mxCell id="sgr5qrsfKLjd4kA1AGSL-22" value="" style="edgeStyle=orthogonalEdgeStyle;rounded=0;orthogonalLoop=1;jettySize=auto;html=1;" parent="1" source="sgr5qrsfKLjd4kA1AGSL-18" target="sgr5qrsfKLjd4kA1AGSL-21" edge="1">
          <mxGeometry relative="1" as="geometry" />
        </mxCell>
        <mxCell id="sgr5qrsfKLjd4kA1AGSL-18" value="Access API Web Service - Dukcapil" style="shape=process;whiteSpace=wrap;html=1;backgroundOutline=1;" parent="1" vertex="1">
          <mxGeometry x="550" y="740" width="120" height="60" as="geometry" />
        </mxCell>
        <mxCell id="sgr5qrsfKLjd4kA1AGSL-27" style="edgeStyle=orthogonalEdgeStyle;rounded=0;orthogonalLoop=1;jettySize=auto;html=1;entryX=1;entryY=0.5;entryDx=0;entryDy=0;" parent="1" source="sgr5qrsfKLjd4kA1AGSL-21" target="sgr5qrsfKLjd4kA1AGSL-9" edge="1">
          <mxGeometry relative="1" as="geometry" />
        </mxCell>
        <mxCell id="sgr5qrsfKLjd4kA1AGSL-21" value="Display Result" style="shape=document;whiteSpace=wrap;html=1;boundedLbl=1;" parent="1" vertex="1">
          <mxGeometry x="550" y="840" width="120" height="80" as="geometry" />
        </mxCell>
      </root>
    </mxGraphModel>
  </diagram>
  <diagram id="Ekc67PocLdCeU2iOS9zC" name="FOW-WEBSERVICE-DUKCAPIL">
    <mxGraphModel dx="1050" dy="558" grid="1" gridSize="10" guides="1" tooltips="1" connect="1" arrows="1" fold="1" page="1" pageScale="1" pageWidth="827" pageHeight="1169" math="0" shadow="0">
      <root>
        <mxCell id="0" />
        <mxCell id="1" parent="0" />
        <mxCell id="I68JKYWHF2zzKv5QIubC-4" value="" style="edgeStyle=orthogonalEdgeStyle;rounded=0;orthogonalLoop=1;jettySize=auto;html=1;" edge="1" parent="1" source="I68JKYWHF2zzKv5QIubC-1" target="I68JKYWHF2zzKv5QIubC-3">
          <mxGeometry relative="1" as="geometry" />
        </mxCell>
        <mxCell id="I68JKYWHF2zzKv5QIubC-1" value="START" style="rounded=1;whiteSpace=wrap;html=1;" vertex="1" parent="1">
          <mxGeometry x="305" y="30" width="120" height="60" as="geometry" />
        </mxCell>
        <mxCell id="I68JKYWHF2zzKv5QIubC-6" value="" style="edgeStyle=orthogonalEdgeStyle;rounded=0;orthogonalLoop=1;jettySize=auto;html=1;" edge="1" parent="1" source="I68JKYWHF2zzKv5QIubC-3" target="I68JKYWHF2zzKv5QIubC-5">
          <mxGeometry relative="1" as="geometry" />
        </mxCell>
        <mxCell id="I68JKYWHF2zzKv5QIubC-3" value="Receive Parameter Input" style="shape=parallelogram;perimeter=parallelogramPerimeter;whiteSpace=wrap;html=1;fixedSize=1;rounded=1;" vertex="1" parent="1">
          <mxGeometry x="280" y="130" width="170" height="60" as="geometry" />
        </mxCell>
        <mxCell id="I68JKYWHF2zzKv5QIubC-8" value="" style="edgeStyle=orthogonalEdgeStyle;rounded=0;orthogonalLoop=1;jettySize=auto;html=1;" edge="1" parent="1" source="I68JKYWHF2zzKv5QIubC-5" target="I68JKYWHF2zzKv5QIubC-7">
          <mxGeometry relative="1" as="geometry" />
        </mxCell>
        <mxCell id="I68JKYWHF2zzKv5QIubC-5" value="Encapsulate &amp;amp; Create Dukcapil data format" style="rounded=1;whiteSpace=wrap;html=1;" vertex="1" parent="1">
          <mxGeometry x="270" y="240" width="190" height="60" as="geometry" />
        </mxCell>
        <mxCell id="I68JKYWHF2zzKv5QIubC-10" value="" style="edgeStyle=orthogonalEdgeStyle;rounded=0;orthogonalLoop=1;jettySize=auto;html=1;" edge="1" parent="1" source="I68JKYWHF2zzKv5QIubC-7" target="I68JKYWHF2zzKv5QIubC-9">
          <mxGeometry relative="1" as="geometry" />
        </mxCell>
        <mxCell id="I68JKYWHF2zzKv5QIubC-7" value="Request Data to Dukcapil" style="rounded=1;whiteSpace=wrap;html=1;" vertex="1" parent="1">
          <mxGeometry x="270" y="340" width="190" height="60" as="geometry" />
        </mxCell>
        <mxCell id="I68JKYWHF2zzKv5QIubC-12" value="Y" style="edgeStyle=orthogonalEdgeStyle;rounded=0;orthogonalLoop=1;jettySize=auto;html=1;" edge="1" parent="1" source="I68JKYWHF2zzKv5QIubC-9" target="I68JKYWHF2zzKv5QIubC-11">
          <mxGeometry relative="1" as="geometry" />
        </mxCell>
        <mxCell id="I68JKYWHF2zzKv5QIubC-17" value="N" style="edgeStyle=orthogonalEdgeStyle;rounded=0;orthogonalLoop=1;jettySize=auto;html=1;" edge="1" parent="1" source="I68JKYWHF2zzKv5QIubC-9" target="I68JKYWHF2zzKv5QIubC-16">
          <mxGeometry relative="1" as="geometry" />
        </mxCell>
        <mxCell id="I68JKYWHF2zzKv5QIubC-9" value="Success?" style="rhombus;whiteSpace=wrap;html=1;rounded=1;" vertex="1" parent="1">
          <mxGeometry x="312.5" y="450" width="105" height="80" as="geometry" />
        </mxCell>
        <mxCell id="I68JKYWHF2zzKv5QIubC-14" value="" style="edgeStyle=orthogonalEdgeStyle;rounded=0;orthogonalLoop=1;jettySize=auto;html=1;entryX=1;entryY=0.5;entryDx=0;entryDy=0;" edge="1" parent="1" source="I68JKYWHF2zzKv5QIubC-11" target="I68JKYWHF2zzKv5QIubC-16">
          <mxGeometry relative="1" as="geometry">
            <mxPoint x="225" y="610" as="targetPoint" />
          </mxGeometry>
        </mxCell>
        <mxCell id="I68JKYWHF2zzKv5QIubC-11" value="Return Dukcapil Result" style="whiteSpace=wrap;html=1;rounded=1;" vertex="1" parent="1">
          <mxGeometry x="305" y="580" width="120" height="60" as="geometry" />
        </mxCell>
        <mxCell id="I68JKYWHF2zzKv5QIubC-16" value="END" style="whiteSpace=wrap;html=1;rounded=1;" vertex="1" parent="1">
          <mxGeometry x="100" y="580" width="120" height="60" as="geometry" />
        </mxCell>
      </root>
    </mxGraphModel>
  </diagram>
</mxfile>
